<svg xmlns="http://www.w3.org/2000/svg" width="512" height="512" viewBox="0 0 512 512"><rect x="64" y="60" width="384" height="384" rx="112" fill="white" stroke="#ebe7fa" stroke-width="10"/><path d="M168 236c0-20 30-20 30 0v-78c0-22 32-22 32 0v66-91c0-23 32-23 32 0v91-70c0-22 32-22 32 0v83-36c0-22 32-22 32 0v95c0 74-49 104-92 88-37-13-66-55-66-88z" fill="#f5bc62" stroke="#583611" stroke-width="10" stroke-linejoin="round"/><path d="M122 150l-17-22m38-6-6-23m222 61 18-18" stroke="#7257df" stroke-width="12" stroke-linecap="round"/></svg>
